<svg id="logosandtypes_com" xmlns="http://www.w3.org/2000/svg" viewBox="0 0 150 150"><style>.st1{fill:#0060af}</style><g id="Layer_3_2_"><g id="Layer_3_1_"><path id="Layer_3" d="M0 0h150v150H0V0z" fill="none"/></g></g><g id="orkufjarskipti"><path class="st1" d="M126.8 58.3c-3.3 1.9-64.5 37.9-64.4 38.1L98 81.9c-.5 2.9-1.5 5.6-3.1 8-3 4.3-9.7 11.6-22 11.6-14 0-26.7-11.4-26.6-26 0-.5 69-31.4 72.2-32.9.5-.3 1-.6 1.4-1.1 3.3-3.6.2-9.5-4.6-8.8-.5.1-1.1.3-1.6.5-4 2.2-10.2 5.5-14 7.5C81.1 26 53.9 29.1 39 47.8c-6 7.7-9.3 17.2-9.3 26.9v.1c-.1 1.3 0 2.7.1 4.1C21.2 83.7.5 95.1.5 95.1s29.8-12.5 29.9-12.3c.6 2.9 1.5 5.8 2.5 8.6L0 112.5s24.1-8.2 37.3-13.2c.1.1 11.6 18.6 35.6 18.6 23.9 0 43.3-19.4 43.3-43.3 0-.1 10.1-4.8 14.8-7 .6-.3 1.2-.8 1.6-1.4 2.8-3.5.2-8.9-4.3-8.5-.5.2-1 .3-1.5.6zm-44.3-8L46.9 69.5c0-.7.1-1.4.3-2.1 3.7-13.3 17-21.6 30.6-19 1.7.4 3.2 1.1 4.7 1.9z"/><path class="st1" d="M147.8 43.9c4.2-2.8 1.9-9.3-3.1-9.2-.8 0-1.6.2-2.3.5-8.8 4.9-74.7 42.2-74.7 42.2 1.5-.5 71.2-29.7 79.4-33.2.3 0 .5-.2.7-.3z"/></g></svg>